<svg width="115" height="29" viewBox="0 0 115 29" fill="none" xmlns="http://www.w3.org/2000/svg">
<path d="M20.4854 18.2093C19.8025 20.4573 17.754 22.4806 14.1121 22.4806C10.015 22.4806 6.60084 19.1085 6.60084 14.3876C6.60084 9.66667 10.015 6.29457 14.1121 6.29457C17.5263 6.29457 19.5749 8.31784 20.2578 10.5659L27.0861 10.1162C25.7205 4.72094 20.9405 0 14.1121 0C6.37323 0 0 6.29457 0 14.3876C0 22.4806 6.37323 28.7753 14.1121 28.7753C21.1681 28.7753 25.9481 24.0543 27.3137 18.6589L20.4854 18.2093Z" fill="#020113"/>
<path d="M28.6783 18.2092C28.6783 24.2789 33.4581 28.9999 39.3762 28.9999C45.2942 28.9999 50.074 24.2789 50.074 18.2092C50.074 12.1394 45.2942 7.41846 39.3762 7.41846C33.4581 7.41846 28.6783 12.1394 28.6783 18.2092ZM43.9284 18.2092C43.9284 21.3564 41.8799 23.3797 39.3762 23.3797C36.8725 23.3797 34.824 21.3564 34.824 18.2092C34.824 15.0619 36.8725 13.0386 39.3762 13.0386C41.8799 13.0386 43.9284 15.0619 43.9284 18.2092ZM33.4581 5.1704H45.5218V0.449463H33.4581V5.1704Z" fill="#020113"/>
<path d="M52.0011 28.5506H71.576V22.2559H58.6019V0.224854H52.0011V28.5506Z" fill="#020113"/>
<path d="M87.0534 28.5506H91.6064V15.9614C91.6064 11.0156 87.9645 7.4187 82.9563 7.4187C77.494 7.4187 74.535 10.3412 73.8521 14.3877L79.9977 14.8373C79.9977 14.8373 80.453 12.8141 82.7287 12.8141C84.3225 12.8141 85.4604 13.9381 85.4604 15.9614C75.9006 15.9614 72.9418 18.8839 72.9418 22.9304C72.9418 26.3025 75.4454 28.7753 79.9977 28.7753C83.6398 28.7753 86.1431 26.5272 86.1431 26.5272L87.0534 28.5506ZM85.4604 20.4573C85.4604 22.7054 83.8674 24.2791 81.5909 24.2791C79.9977 24.2791 79.0874 23.3799 79.0874 22.2559C79.0874 20.6823 80.2252 19.5583 85.4604 19.5583V20.4573Z" fill="#020113"/>
<path d="M93.8319 28.5506H98.3841L99.2944 26.5272C99.2944 26.5272 101.571 28.7753 105.213 28.7753C110.448 28.7753 115 24.2791 115 18.2094C115 12.1396 110.448 7.64345 105.213 7.64345C102.026 7.64345 99.9771 9.44188 99.9771 9.44188V0.224854H93.8319V28.5506ZM104.302 23.1552C101.798 23.1552 99.7495 21.1318 99.7495 18.2094C99.7495 15.2868 101.798 13.2636 104.302 13.2636C106.806 13.2636 108.855 15.2868 108.855 18.2094C108.855 21.1318 106.806 23.1552 104.302 23.1552Z" fill="#020113"/>
</svg>
