<svg width="20" height="20" viewBox="0 0 20 20" fill="none" xmlns="http://www.w3.org/2000/svg">
<path d="M11.1599 8.69651L12.3424 7.51484C11.8563 7.08042 11.2535 6.79808 10.6085 6.70279C9.96354 6.6075 9.30479 6.70344 8.7138 6.97873C8.12281 7.25402 7.62553 7.69657 7.2835 8.25161C6.94147 8.80665 6.76972 9.44981 6.7895 10.1015C6.80928 10.7531 7.01973 11.3847 7.39479 11.918C7.76986 12.4512 8.29307 12.8628 8.89967 13.1017C9.50627 13.3407 10.1696 13.3965 10.8076 13.2622C11.4456 13.128 12.0302 12.8096 12.4891 12.3465L11.3949 11.2523H11.2199C10.9817 11.4615 10.6887 11.5984 10.3754 11.6469C10.0621 11.6954 9.7414 11.6536 9.45103 11.5262C9.16067 11.3989 8.91265 11.1914 8.73607 10.9281C8.5595 10.6647 8.4617 10.3565 8.45416 10.0395C8.44661 9.72257 8.52963 9.41003 8.69348 9.13859C8.85732 8.86715 9.09519 8.64808 9.37917 8.50708C9.66315 8.36609 9.98145 8.30902 10.2967 8.34257C10.612 8.37612 10.9112 8.49891 11.1591 8.69651H11.1599Z" fill="black"/>
<path fill-rule="evenodd" clip-rule="evenodd" d="M10 2.5C10.9849 2.5 11.9602 2.69399 12.8701 3.0709C13.7801 3.44781 14.6069 4.00026 15.3033 4.6967C15.9997 5.39314 16.5522 6.21993 16.9291 7.12987C17.306 8.03982 17.5 9.01509 17.5 10C17.5 10.9849 17.306 11.9602 16.9291 12.8701C16.5522 13.7801 15.9997 14.6069 15.3033 15.3033C14.6069 15.9997 13.7801 16.5522 12.8701 16.9291C11.9602 17.306 10.9849 17.5 10 17.5C8.01088 17.5 6.10322 16.7098 4.6967 15.3033C3.29018 13.8968 2.5 11.9891 2.5 10C2.5 8.01088 3.29018 6.10322 4.6967 4.6967C6.10322 3.29018 8.01088 2.5 10 2.5ZM10 4.16667C10.766 4.16667 11.5246 4.31755 12.2323 4.6107C12.9401 4.90386 13.5831 5.33354 14.1248 5.87521C14.6665 6.41689 15.0961 7.05995 15.3893 7.76768C15.6825 8.47541 15.8333 9.23396 15.8333 10C15.8333 10.766 15.6825 11.5246 15.3893 12.2323C15.0961 12.9401 14.6665 13.5831 14.1248 14.1248C13.5831 14.6665 12.9401 15.0961 12.2323 15.3893C11.5246 15.6825 10.766 15.8333 10 15.8333C8.4529 15.8333 6.96917 15.2188 5.87521 14.1248C4.78125 13.0308 4.16667 11.5471 4.16667 10C4.16667 8.4529 4.78125 6.96917 5.87521 5.87521C6.96917 4.78125 8.4529 4.16667 10 4.16667Z" fill="black"/>
</svg>
